<svg width="756" height="755" viewBox="0 0 756 755" fill="none" xmlns="http://www.w3.org/2000/svg">
<path d="M246 171C246 171 245.719 128 274.859 128C304 128 304 171 304 171" stroke="black" stroke-width="2"/>
<path d="M453 171C453 171 452.719 128 481.859 128C511 128 511 171 511 171" stroke="black" stroke-width="2"/>
<path d="M246 584C246 584 245.719 627 274.859 627C304 627 304 584 304 584" stroke="black" stroke-width="2"/>
<path d="M453 584C453 584 452.719 627 481.859 627C511 627 511 584 511 584" stroke="black" stroke-width="2"/>
<path d="M584 509C584 509 627 509.281 627 480.141C627 451 584 451 584 451" stroke="black" stroke-width="2"/>
<path d="M584 302C584 302 627 302.281 627 273.141C627 244 584 244 584 244" stroke="black" stroke-width="2"/>
<path d="M172 509C172 509 129 509.281 129 480.141C129 451 172 451 172 451" stroke="black" stroke-width="2"/>
<path d="M172 302C172 302 129 302.281 129 273.141C129 244 172 244 172 244" stroke="black" stroke-width="2"/>
</svg>
