<svg width="756" height="755" viewBox="0 0 756 755" fill="none" xmlns="http://www.w3.org/2000/svg">
<mask id="mask0" mask-type="alpha" maskUnits="userSpaceOnUse" x="171" y="164" width="420" height="425">
<rect x="-1" y="1" width="185" height="38" transform="matrix(-1 0 0 1 356 356.998)" fill="white" stroke="black" stroke-width="2"/>
<rect x="-1" y="1" width="191" height="38" transform="matrix(-1 0 0 1 589 356.998)" fill="white" stroke="black" stroke-width="2"/>
<rect x="1" y="-1" width="38" height="190" transform="matrix(1 0 0 -1 358 354.998)" fill="white" stroke="black" stroke-width="2"/>
<rect x="1" y="-1" width="38" height="190" transform="matrix(1 0 0 -1 358 586.998)" fill="white" stroke="black" stroke-width="2"/>
</mask>
<g mask="url(#mask0)">
<path d="M397 377C397 434.14 394.762 485.856 391.147 523.275C389.339 541.99 387.189 557.098 384.81 567.51C383.619 572.725 382.382 576.708 381.126 579.368C380.497 580.7 379.889 581.645 379.32 582.242C378.752 582.84 378.314 583 378 583C377.686 583 377.248 582.84 376.68 582.242C376.111 581.645 375.503 580.7 374.874 579.368C373.618 576.708 372.381 572.725 371.19 567.51C368.811 557.098 366.661 541.99 364.853 523.275C361.238 485.856 359 434.14 359 377C359 319.86 361.238 268.144 364.853 230.725C366.661 212.01 368.811 196.902 371.19 186.49C372.381 181.275 373.618 177.292 374.874 174.632C375.503 173.3 376.111 172.355 376.68 171.758C377.248 171.16 377.686 171 378 171C378.314 171 378.752 171.16 379.32 171.758C379.889 172.355 380.497 173.3 381.126 174.632C382.382 177.292 383.619 181.275 384.81 186.49C387.189 196.902 389.339 212.01 391.147 230.725C394.762 268.144 397 319.86 397 377Z" stroke="black" stroke-width="2"/>
<path d="M390 377C390 429.728 388.545 477.454 386.195 511.99C385.019 529.261 383.621 543.211 382.073 552.831C381.298 557.649 380.491 561.338 379.671 563.804C379.259 565.044 378.862 565.915 378.498 566.457C378.225 566.865 378.053 566.968 378 566.993C377.947 566.968 377.775 566.865 377.502 566.457C377.138 565.915 376.741 565.044 376.329 563.804C375.509 561.338 374.702 557.649 373.927 552.831C372.379 543.211 370.981 529.261 369.805 511.99C367.455 477.454 366 429.728 366 377C366 324.272 367.455 276.546 369.805 242.011C370.981 224.739 372.379 210.789 373.927 201.169C374.702 196.351 375.509 192.662 376.329 190.196C376.741 188.956 377.138 188.085 377.502 187.543C377.775 187.135 377.947 187.032 378 187.007C378.053 187.032 378.225 187.135 378.498 187.543C378.862 188.085 379.259 188.956 379.671 190.196C380.491 192.662 381.298 196.351 382.073 201.169C383.621 210.789 385.019 224.739 386.195 242.011C388.545 276.546 390 324.272 390 377Z" stroke="black" stroke-width="2"/>
<path d="M378 365C430.728 365 478.454 366.455 512.99 368.805C530.261 369.981 544.211 371.379 553.831 372.927C558.649 373.702 562.338 374.509 564.804 375.329C566.044 375.741 566.915 376.138 567.457 376.502C567.865 376.775 567.968 376.947 567.993 377C567.968 377.053 567.865 377.225 567.457 377.498C566.915 377.862 566.044 378.259 564.804 378.671C562.338 379.491 558.649 380.298 553.831 381.073C544.211 382.621 530.261 384.019 512.99 385.195C478.454 387.545 430.728 389 378 389C325.272 389 277.546 387.545 243.011 385.195C225.739 384.019 211.789 382.621 202.169 381.073C197.351 380.298 193.662 379.491 191.196 378.671C189.956 378.259 189.085 377.862 188.543 377.498C188.135 377.225 188.032 377.053 188.007 377C188.032 376.947 188.135 376.775 188.543 376.502C189.085 376.138 189.956 375.741 191.196 375.329C193.662 374.509 197.351 373.702 202.169 372.927C211.789 371.379 225.739 369.981 243.011 368.805C277.546 366.455 325.272 365 378 365Z" stroke="black" stroke-width="2"/>
<path d="M378 396C320.86 396 269.144 393.762 231.725 390.147C213.01 388.339 197.902 386.189 187.49 383.81C182.275 382.619 178.292 381.382 175.632 380.126C174.3 379.497 173.355 378.889 172.758 378.32C172.16 377.752 172 377.314 172 377C172 376.686 172.16 376.248 172.758 375.68C173.355 375.111 174.3 374.503 175.632 373.874C178.292 372.618 182.275 371.381 187.49 370.19C197.902 367.811 213.01 365.661 231.725 363.853C269.144 360.238 320.86 358 378 358C435.14 358 486.856 360.238 524.275 363.853C542.99 365.661 558.098 367.811 568.51 370.19C573.725 371.381 577.708 372.618 580.368 373.874C581.7 374.503 582.645 375.111 583.242 375.68C583.84 376.248 584 376.686 584 377C584 377.314 583.84 377.752 583.242 378.32C582.645 378.889 581.7 379.497 580.368 380.126C577.708 381.382 573.725 382.619 568.51 383.81C558.098 386.189 542.99 388.339 524.275 390.147C486.856 393.762 435.14 396 378 396Z" stroke="black" stroke-width="2"/>
</g>
</svg>
