<svg width="756" height="755" viewBox="0 0 756 755" fill="none" xmlns="http://www.w3.org/2000/svg">
<path d="M290.988 239.185C316.989 265.063 334.054 295.024 344.621 318.534C349.903 330.285 353.557 340.416 355.89 347.605C357.056 351.199 357.892 354.058 358.436 356.015C358.583 356.545 358.709 357.01 358.814 357.405C358.419 357.301 357.954 357.178 357.423 357.033C355.463 356.498 352.601 355.676 349.001 354.527C341.801 352.228 331.653 348.622 319.877 343.395C296.318 332.94 266.276 316.017 240.275 290.139C214.274 264.261 197.209 234.299 186.642 210.79C181.36 199.039 177.705 188.908 175.373 181.719C174.206 178.124 173.37 175.266 172.827 173.309C172.68 172.778 172.554 172.314 172.448 171.919C172.844 172.023 173.309 172.146 173.84 172.291C175.8 172.825 178.662 173.648 182.262 174.797C189.462 177.096 199.61 180.702 211.386 185.928C234.945 196.384 264.987 213.307 290.988 239.185Z" stroke="black" stroke-width="2"/>
<path d="M465.645 238.857C439.637 264.742 422.568 294.713 411.999 318.23C406.716 329.985 403.062 340.119 400.729 347.311C399.562 350.906 398.726 353.766 398.183 355.723C398.035 356.255 397.909 356.719 397.804 357.114C398.2 357.011 398.665 356.887 399.197 356.742C401.157 356.208 404.02 355.386 407.621 354.236C414.824 351.937 424.975 348.331 436.755 343.103C460.322 332.646 490.373 315.72 516.381 289.834C542.389 263.949 559.458 233.979 570.027 210.462C575.31 198.706 578.964 188.572 581.298 181.381C582.464 177.785 583.3 174.926 583.843 172.968C583.991 172.437 584.117 171.972 584.222 171.577C583.827 171.681 583.361 171.804 582.829 171.949C580.869 172.484 578.006 173.306 574.405 174.455C567.202 176.754 557.051 180.361 545.271 185.588C521.704 196.045 491.653 212.972 465.645 238.857Z" stroke="black" stroke-width="2"/>
<path d="M291.007 515.056C316.961 489.225 334.021 459.343 344.594 435.902C349.88 424.184 353.54 414.085 355.878 406.918C357.047 403.336 357.885 400.486 358.431 398.536C358.577 398.012 358.703 397.553 358.808 397.162C358.416 397.265 357.956 397.388 357.432 397.532C355.478 398.068 352.625 398.893 349.037 400.045C341.859 402.349 331.743 405.961 320 411.191C296.509 421.653 266.547 438.571 240.593 464.403C214.639 490.234 197.579 520.116 187.006 543.557C181.721 555.274 178.06 565.374 175.722 572.54C174.553 576.123 173.715 578.972 173.17 580.923C173.023 581.447 172.898 581.906 172.793 582.297C173.185 582.194 173.644 582.071 174.169 581.927C176.122 581.391 178.975 580.566 182.564 579.414C189.741 577.11 199.858 573.497 211.6 568.268C235.091 557.806 265.053 540.887 291.007 515.056Z" stroke="black" stroke-width="2"/>
<path d="M465.403 515.09C439.371 489.182 422.319 459.151 411.774 435.58C406.502 423.797 402.86 413.638 400.537 406.427C399.376 402.822 398.544 399.955 398.004 397.992C397.856 397.454 397.729 396.984 397.624 396.585C398.024 396.689 398.494 396.813 399.033 396.958C400.999 397.49 403.869 398.308 407.48 399.452C414.701 401.741 424.878 405.334 436.685 410.55C460.306 420.984 490.417 437.893 516.449 463.802C542.48 489.71 559.532 519.741 570.078 543.312C575.349 555.095 578.991 565.255 581.314 572.465C582.476 576.07 583.307 578.937 583.848 580.9C583.996 581.438 584.122 581.908 584.227 582.307C583.828 582.204 583.357 582.079 582.819 581.934C580.853 581.403 577.982 580.585 574.372 579.44C567.15 577.151 556.974 573.558 545.166 568.342C521.545 557.908 491.434 540.999 465.403 515.09Z" stroke="black" stroke-width="2"/>
</svg>
