<svg width="756" height="755" viewBox="0 0 756 755" fill="none" xmlns="http://www.w3.org/2000/svg">
<path d="M654.407 616.111C661.29 622.993 665.37 631.321 666.438 639.191C667.506 647.059 665.561 654.408 660.485 659.485C655.408 664.561 648.059 666.506 640.191 665.438C632.321 664.37 623.993 660.29 617.111 653.407C613.721 650.018 609.999 643.943 606.306 636.625C602.628 629.337 599.028 620.916 595.86 612.918C592.693 604.922 589.964 597.362 588.025 591.801C587.056 589.02 586.286 586.74 585.757 585.156C585.687 584.944 585.62 584.745 585.559 584.559C585.745 584.62 585.944 584.687 586.156 584.757C587.74 585.286 590.02 586.056 592.801 587.025C598.362 588.964 605.922 591.693 613.918 594.86C621.916 598.028 630.337 601.628 637.625 605.306C644.943 608.999 651.018 612.721 654.407 616.111Z" stroke="black" stroke-width="2"/>
<path d="M102.14 616.111C95.2573 622.993 91.1768 631.321 90.109 639.191C89.0414 647.059 90.9857 654.408 96.0625 659.485C101.139 664.561 108.488 666.506 116.356 665.438C124.226 664.37 132.554 660.29 139.436 653.407C142.826 650.018 146.548 643.943 150.241 636.625C153.919 629.337 157.519 620.916 160.687 612.918C163.854 604.922 166.583 597.362 168.522 591.801C169.491 589.02 170.261 586.74 170.79 585.156C170.86 584.944 170.927 584.745 170.988 584.559C170.802 584.62 170.603 584.687 170.392 584.757C168.807 585.286 166.527 586.056 163.746 587.025C158.185 588.964 150.625 591.693 142.629 594.86C134.631 598.028 126.21 601.628 118.922 605.306C111.604 608.999 105.529 612.721 102.14 616.111Z" stroke="black" stroke-width="2"/>
<path d="M102.14 138.436C95.2573 131.554 91.1768 123.226 90.109 115.356C89.0414 107.488 90.9857 100.139 96.0625 95.0625C101.139 89.9857 108.488 88.0414 116.356 89.109C124.226 90.1768 132.554 94.2573 139.436 101.14C142.826 104.529 146.548 110.604 150.241 117.922C153.919 125.21 157.519 133.631 160.687 141.629C163.854 149.625 166.583 157.185 168.522 162.747C169.491 165.527 170.261 167.807 170.79 169.392C170.86 169.603 170.927 169.802 170.988 169.988C170.802 169.927 170.603 169.86 170.392 169.79C168.807 169.261 166.527 168.491 163.746 167.522C158.185 165.583 150.625 162.854 142.629 159.687C134.631 156.519 126.21 152.919 118.922 149.241C111.604 145.548 105.529 141.826 102.14 138.436Z" stroke="black" stroke-width="2"/>
<path d="M653.771 138.436C660.653 131.554 664.734 123.226 665.801 115.356C666.869 107.488 664.925 100.139 659.848 95.0625C654.771 89.9857 647.423 88.0414 639.554 89.109C631.685 90.1768 623.357 94.2573 616.474 101.14C613.084 104.529 609.362 110.604 605.67 117.922C601.992 125.21 598.392 133.631 595.224 141.629C592.057 149.625 589.327 157.185 587.389 162.747C586.42 165.527 585.649 167.807 585.121 169.392C585.05 169.603 584.984 169.802 584.922 169.988C585.108 169.927 585.307 169.86 585.519 169.79C587.103 169.261 589.384 168.491 592.164 167.522C597.726 165.583 605.285 162.854 613.281 159.687C621.28 156.519 629.7 152.919 636.989 149.241C644.306 145.548 650.381 141.826 653.771 138.436Z" stroke="black" stroke-width="2"/>
</svg>
