<svg width="756" height="755" viewBox="0 0 756 755" fill="none" xmlns="http://www.w3.org/2000/svg">
<path d="M172 171C172 171 189.5 81 274.5 81C359.5 81 378 171 378 171" stroke="black" stroke-width="2"/>
<path d="M378 171C378 171 395.5 81 480.5 81C565.5 81 584 171 584 171" stroke="black" stroke-width="2"/>
<path d="M172 583C172 583 189.5 673 274.5 673C359.5 673 378 583 378 583" stroke="black" stroke-width="2"/>
<path d="M378 583C378 583 395.5 673 480.5 673C565.5 673 584 583 584 583" stroke="black" stroke-width="2"/>
<path d="M584 171C584 171 674 188.5 674 273.5C674 358.5 584 377 584 377" stroke="black" stroke-width="2"/>
<path d="M584 377C584 377 674 394.5 674 479.5C674 564.5 584 583 584 583" stroke="black" stroke-width="2"/>
<path d="M172 171C172 171 82 188.5 82 273.5C82 358.5 172 377 172 377" stroke="black" stroke-width="2"/>
<path d="M172 377C172 377 82 394.5 82 479.5C82 564.5 172 583 172 583" stroke="black" stroke-width="2"/>
</svg>
